# xmcd CD database file
#
# Track frame offsets:
#	150
#	15332
#	27254
#	44131
#	56820
#	78084
#	89758
#	108658
#	125859
#	142831
#	164072
#	185562
#
# Disc length: 2766 seconds
#
# Revision: 0
# Processed by: cddbd v1.5.1PL2 Copyright (c) Steve Scherf et al.
# Submitted via: CDex 1.51
#
DISCID=ab0acc0c
DTITLE=Spectrum - No Thinking
DYEAR=2004
DGENRE=Blues
TTITLE0=I Ain't Superstitious
TTITLE1=Good mornin' Little Schoolgirl
TTITLE2=She's A Woman
TTITLE3=Hey, Good Lookin'
TTITLE4=Summertime
TTITLE5=On Broadway
TTITLE6=I Heard it Through the Grapevine
TTITLE7=So Low
TTITLE8=Heartbreak Hotel
TTITLE9=I Know There Was Another Man There
TTITLE10=Help Me
TTITLE11=Spoonful
EXTD=YEAR: 2004
EXTT0=
EXTT1=
EXTT2=
EXTT3=
EXTT4=
EXTT5=
EXTT6=
EXTT7=
EXTT8=
EXTT9=
EXTT10=
EXTT11=
PLAYORDER=
